<mxfile host="app.diagrams.net" agent="Mozilla/5.0 (Windows NT 10.0; Win64; x64) AppleWebKit/537.36 (KHTML, like Gecko) Chrome/138.0.0.0 Safari/537.36" version="28.0.7">
  <diagram name="Page-1" id="N6tCWOgWccRo9kVSXPpJ">
    <mxGraphModel dx="872" dy="431" grid="1" gridSize="10" guides="1" tooltips="1" connect="1" arrows="1" fold="1" page="1" pageScale="1" pageWidth="850" pageHeight="1100" math="0" shadow="0">
      <root>
        <mxCell id="0" />
        <mxCell id="1" parent="0" />
        <mxCell id="0C3MbrOY9eeC3Z7wSnK_-1" value="AWS Account" style="points=[[0,0],[0.25,0],[0.5,0],[0.75,0],[1,0],[1,0.25],[1,0.5],[1,0.75],[1,1],[0.75,1],[0.5,1],[0.25,1],[0,1],[0,0.75],[0,0.5],[0,0.25]];outlineConnect=0;html=1;whiteSpace=wrap;fontSize=12;fontStyle=0;container=1;pointerEvents=0;collapsible=0;recursiveResize=0;shape=mxgraph.aws4.group;grIcon=mxgraph.aws4.group_account;strokeColor=#666666;fillColor=#f5f5f5;verticalAlign=top;align=left;spacingLeft=30;fontColor=#333333;dashed=0;" vertex="1" parent="1">
          <mxGeometry x="80" y="40" width="720" height="400" as="geometry" />
        </mxCell>
        <mxCell id="0C3MbrOY9eeC3Z7wSnK_-2" value="" style="rounded=0;whiteSpace=wrap;html=1;fillColor=#d5e8d4;strokeColor=#82b366;" vertex="1" parent="0C3MbrOY9eeC3Z7wSnK_-1">
          <mxGeometry x="80" y="80" width="320" height="240" as="geometry" />
        </mxCell>
        <mxCell id="0C3MbrOY9eeC3Z7wSnK_-3" value="" style="sketch=0;points=[[0,0,0],[0.25,0,0],[0.5,0,0],[0.75,0,0],[1,0,0],[0,1,0],[0.25,1,0],[0.5,1,0],[0.75,1,0],[1,1,0],[0,0.25,0],[0,0.5,0],[0,0.75,0],[1,0.25,0],[1,0.5,0],[1,0.75,0]];outlineConnect=0;fontColor=#232F3E;fillColor=#ED7100;strokeColor=#ffffff;dashed=0;verticalLabelPosition=bottom;verticalAlign=top;align=center;html=1;fontSize=12;fontStyle=0;aspect=fixed;shape=mxgraph.aws4.resourceIcon;resIcon=mxgraph.aws4.eks_anywhere;" vertex="1" parent="0C3MbrOY9eeC3Z7wSnK_-1">
          <mxGeometry x="80" y="80" width="40" height="40" as="geometry" />
        </mxCell>
        <mxCell id="0C3MbrOY9eeC3Z7wSnK_-4" value="" style="outlineConnect=0;dashed=0;verticalLabelPosition=bottom;verticalAlign=top;align=center;html=1;shape=mxgraph.aws3.application_load_balancer;fillColor=#F58536;gradientColor=none;" vertex="1" parent="0C3MbrOY9eeC3Z7wSnK_-1">
          <mxGeometry x="640" y="126" width="60" height="60" as="geometry" />
        </mxCell>
        <mxCell id="0C3MbrOY9eeC3Z7wSnK_-26" style="edgeStyle=orthogonalEdgeStyle;rounded=0;orthogonalLoop=1;jettySize=auto;html=1;entryX=0;entryY=0.5;entryDx=0;entryDy=0;" edge="1" parent="0C3MbrOY9eeC3Z7wSnK_-1" source="0C3MbrOY9eeC3Z7wSnK_-5" target="0C3MbrOY9eeC3Z7wSnK_-25">
          <mxGeometry relative="1" as="geometry" />
        </mxCell>
        <mxCell id="0C3MbrOY9eeC3Z7wSnK_-5" value="" style="sketch=0;outlineConnect=0;fontColor=#232F3E;gradientColor=none;fillColor=#DD344C;strokeColor=none;dashed=0;verticalLabelPosition=bottom;verticalAlign=top;align=center;html=1;fontSize=12;fontStyle=0;aspect=fixed;pointerEvents=1;shape=mxgraph.aws4.identity_access_management_iam_roles_anywhere;" vertex="1" parent="0C3MbrOY9eeC3Z7wSnK_-1">
          <mxGeometry x="520.01" y="126" width="60" height="60" as="geometry" />
        </mxCell>
        <mxCell id="0C3MbrOY9eeC3Z7wSnK_-6" style="edgeStyle=orthogonalEdgeStyle;rounded=0;orthogonalLoop=1;jettySize=auto;html=1;entryX=0;entryY=0.5;entryDx=0;entryDy=0;entryPerimeter=0;" edge="1" parent="0C3MbrOY9eeC3Z7wSnK_-1" source="0C3MbrOY9eeC3Z7wSnK_-5" target="0C3MbrOY9eeC3Z7wSnK_-4">
          <mxGeometry relative="1" as="geometry" />
        </mxCell>
        <mxCell id="0C3MbrOY9eeC3Z7wSnK_-7" value="" style="outlineConnect=0;dashed=0;verticalLabelPosition=bottom;verticalAlign=top;align=center;html=1;shape=mxgraph.aws3.policy;fillColor=#5294CF;gradientColor=none;" vertex="1" parent="0C3MbrOY9eeC3Z7wSnK_-1">
          <mxGeometry x="526.13" y="240" width="47.75" height="80" as="geometry" />
        </mxCell>
        <mxCell id="0C3MbrOY9eeC3Z7wSnK_-8" style="edgeStyle=orthogonalEdgeStyle;rounded=0;orthogonalLoop=1;jettySize=auto;html=1;entryX=0.5;entryY=0;entryDx=0;entryDy=0;entryPerimeter=0;" edge="1" parent="0C3MbrOY9eeC3Z7wSnK_-1" source="0C3MbrOY9eeC3Z7wSnK_-5" target="0C3MbrOY9eeC3Z7wSnK_-7">
          <mxGeometry relative="1" as="geometry" />
        </mxCell>
        <mxCell id="0C3MbrOY9eeC3Z7wSnK_-9" value="" style="rounded=1;whiteSpace=wrap;html=1;fillColor=#e1d5e7;strokeColor=#9673a6;" vertex="1" parent="0C3MbrOY9eeC3Z7wSnK_-1">
          <mxGeometry x="130" y="120" width="230" height="150" as="geometry" />
        </mxCell>
        <mxCell id="0C3MbrOY9eeC3Z7wSnK_-10" value="" style="aspect=fixed;sketch=0;html=1;dashed=0;whitespace=wrap;verticalLabelPosition=bottom;verticalAlign=top;fillColor=#2875E2;strokeColor=#ffffff;points=[[0.005,0.63,0],[0.1,0.2,0],[0.9,0.2,0],[0.5,0,0],[0.995,0.63,0],[0.72,0.99,0],[0.5,1,0],[0.28,0.99,0]];shape=mxgraph.kubernetes.icon2;kubernetesLabel=1;prIcon=pod" vertex="1" parent="0C3MbrOY9eeC3Z7wSnK_-1">
          <mxGeometry x="160" y="132" width="50" height="48" as="geometry" />
        </mxCell>
        <mxCell id="0C3MbrOY9eeC3Z7wSnK_-11" value="&lt;b&gt;aws-load-&lt;/b&gt;&lt;div&gt;&lt;b&gt;balancer-controller&lt;/b&gt;&lt;/div&gt;" style="text;html=1;align=center;verticalAlign=middle;resizable=0;points=[];autosize=1;strokeColor=none;fillColor=none;" vertex="1" parent="0C3MbrOY9eeC3Z7wSnK_-1">
          <mxGeometry x="120" y="180" width="130" height="40" as="geometry" />
        </mxCell>
        <mxCell id="0C3MbrOY9eeC3Z7wSnK_-14" style="edgeStyle=orthogonalEdgeStyle;rounded=0;orthogonalLoop=1;jettySize=auto;html=1;" edge="1" parent="0C3MbrOY9eeC3Z7wSnK_-1" source="0C3MbrOY9eeC3Z7wSnK_-15" target="0C3MbrOY9eeC3Z7wSnK_-5">
          <mxGeometry relative="1" as="geometry" />
        </mxCell>
        <mxCell id="0C3MbrOY9eeC3Z7wSnK_-19" value="" style="edgeStyle=orthogonalEdgeStyle;rounded=0;orthogonalLoop=1;jettySize=auto;html=1;" edge="1" parent="0C3MbrOY9eeC3Z7wSnK_-1" source="0C3MbrOY9eeC3Z7wSnK_-12" target="0C3MbrOY9eeC3Z7wSnK_-18">
          <mxGeometry relative="1" as="geometry" />
        </mxCell>
        <mxCell id="0C3MbrOY9eeC3Z7wSnK_-12" value="&lt;b&gt;SA&lt;/b&gt;" style="html=1;whiteSpace=wrap;strokeColor=none;fillColor=#0079D6;labelPosition=center;verticalLabelPosition=middle;verticalAlign=top;align=center;fontSize=12;outlineConnect=0;spacingTop=-6;fontColor=#FFFFFF;sketch=0;shape=mxgraph.sitemap.services;" vertex="1" parent="0C3MbrOY9eeC3Z7wSnK_-1">
          <mxGeometry x="270" y="131" width="70" height="50" as="geometry" />
        </mxCell>
        <mxCell id="0C3MbrOY9eeC3Z7wSnK_-13" style="edgeStyle=orthogonalEdgeStyle;rounded=0;orthogonalLoop=1;jettySize=auto;html=1;entryX=0;entryY=0.5;entryDx=0;entryDy=0;entryPerimeter=0;" edge="1" parent="0C3MbrOY9eeC3Z7wSnK_-1" source="0C3MbrOY9eeC3Z7wSnK_-10" target="0C3MbrOY9eeC3Z7wSnK_-12">
          <mxGeometry relative="1" as="geometry" />
        </mxCell>
        <mxCell id="0C3MbrOY9eeC3Z7wSnK_-15" value="" style="sketch=0;verticalLabelPosition=bottom;sketch=0;aspect=fixed;html=1;verticalAlign=top;strokeColor=#9673a6;fillColor=#e1d5e7;align=center;outlineConnect=0;pointerEvents=1;shape=mxgraph.citrix2.authentication_oidc;" vertex="1" parent="0C3MbrOY9eeC3Z7wSnK_-1">
          <mxGeometry x="420" y="130" width="50" height="50" as="geometry" />
        </mxCell>
        <mxCell id="0C3MbrOY9eeC3Z7wSnK_-16" value="" style="edgeStyle=orthogonalEdgeStyle;rounded=0;orthogonalLoop=1;jettySize=auto;html=1;" edge="1" parent="0C3MbrOY9eeC3Z7wSnK_-1" source="0C3MbrOY9eeC3Z7wSnK_-12" target="0C3MbrOY9eeC3Z7wSnK_-15">
          <mxGeometry relative="1" as="geometry">
            <mxPoint x="420" y="196" as="sourcePoint" />
            <mxPoint x="600" y="196" as="targetPoint" />
          </mxGeometry>
        </mxCell>
        <mxCell id="0C3MbrOY9eeC3Z7wSnK_-17" value="&lt;b&gt;OIDC&lt;/b&gt;" style="text;html=1;align=center;verticalAlign=middle;resizable=0;points=[];autosize=1;strokeColor=none;fillColor=none;" vertex="1" parent="0C3MbrOY9eeC3Z7wSnK_-1">
          <mxGeometry x="420" y="185" width="50" height="30" as="geometry" />
        </mxCell>
        <mxCell id="0C3MbrOY9eeC3Z7wSnK_-23" style="edgeStyle=orthogonalEdgeStyle;rounded=0;orthogonalLoop=1;jettySize=auto;html=1;" edge="1" parent="0C3MbrOY9eeC3Z7wSnK_-1" source="0C3MbrOY9eeC3Z7wSnK_-18" target="0C3MbrOY9eeC3Z7wSnK_-22">
          <mxGeometry relative="1" as="geometry" />
        </mxCell>
        <mxCell id="0C3MbrOY9eeC3Z7wSnK_-18" value="" style="aspect=fixed;sketch=0;html=1;dashed=0;whitespace=wrap;verticalLabelPosition=bottom;verticalAlign=top;fillColor=#2875E2;strokeColor=#ffffff;points=[[0.005,0.63,0],[0.1,0.2,0],[0.9,0.2,0],[0.5,0,0],[0.995,0.63,0],[0.72,0.99,0],[0.5,1,0],[0.28,0.99,0]];shape=mxgraph.kubernetes.icon2;prIcon=role" vertex="1" parent="0C3MbrOY9eeC3Z7wSnK_-1">
          <mxGeometry x="280" y="222" width="50" height="48" as="geometry" />
        </mxCell>
        <mxCell id="0C3MbrOY9eeC3Z7wSnK_-20" value="&lt;b&gt;Role Binding&lt;/b&gt;" style="rounded=1;whiteSpace=wrap;html=1;" vertex="1" parent="0C3MbrOY9eeC3Z7wSnK_-1">
          <mxGeometry x="240" y="190" width="120" height="20" as="geometry" />
        </mxCell>
        <mxCell id="0C3MbrOY9eeC3Z7wSnK_-22" value="&lt;b&gt;Other&lt;/b&gt;&lt;div&gt;&lt;b&gt;Resources&lt;/b&gt;&lt;/div&gt;" style="rounded=0;whiteSpace=wrap;html=1;fillColor=#f8cecc;strokeColor=#b85450;" vertex="1" parent="0C3MbrOY9eeC3Z7wSnK_-1">
          <mxGeometry x="150" y="215" width="70" height="50" as="geometry" />
        </mxCell>
        <mxCell id="0C3MbrOY9eeC3Z7wSnK_-25" value="" style="image;aspect=fixed;perimeter=ellipsePerimeter;html=1;align=center;shadow=0;dashed=0;spacingTop=3;image=img/lib/active_directory/security.svg;" vertex="1" parent="0C3MbrOY9eeC3Z7wSnK_-1">
          <mxGeometry x="652.67" y="230" width="34.65" height="55" as="geometry" />
        </mxCell>
        <mxCell id="0C3MbrOY9eeC3Z7wSnK_-27" value="" style="rounded=1;whiteSpace=wrap;html=1;" vertex="1" parent="1">
          <mxGeometry x="240" y="550" width="180" height="100" as="geometry" />
        </mxCell>
        <mxCell id="0C3MbrOY9eeC3Z7wSnK_-28" value="&lt;b&gt;mysql&lt;/b&gt;" style="ellipse;whiteSpace=wrap;html=1;" vertex="1" parent="1">
          <mxGeometry x="250" y="585" width="70" height="30" as="geometry" />
        </mxCell>
        <mxCell id="0C3MbrOY9eeC3Z7wSnK_-31" style="edgeStyle=orthogonalEdgeStyle;rounded=0;orthogonalLoop=1;jettySize=auto;html=1;" edge="1" parent="1" source="0C3MbrOY9eeC3Z7wSnK_-29" target="0C3MbrOY9eeC3Z7wSnK_-30">
          <mxGeometry relative="1" as="geometry" />
        </mxCell>
        <mxCell id="0C3MbrOY9eeC3Z7wSnK_-29" value="init&lt;div&gt;container&lt;/div&gt;" style="ellipse;whiteSpace=wrap;html=1;aspect=fixed;" vertex="1" parent="1">
          <mxGeometry x="360" y="575" width="50" height="50" as="geometry" />
        </mxCell>
        <mxCell id="0C3MbrOY9eeC3Z7wSnK_-30" value="" style="image;aspect=fixed;perimeter=ellipsePerimeter;html=1;align=center;shadow=0;dashed=0;spacingTop=3;image=img/lib/active_directory/security.svg;" vertex="1" parent="1">
          <mxGeometry x="500" y="572.5" width="34.65" height="55" as="geometry" />
        </mxCell>
      </root>
    </mxGraphModel>
  </diagram>
</mxfile>
